# xmcd
#
# Track frame offsets: 
#        182
#        9895
#        24435
#        38082
#        51392
#        64875
#        82410
#        96302
#        117450
#        141782
#        168220
#        185060
#        203010
#        222222
#        245165
#        261822
#        293770
#        314057
#
# Disc length: 4467 seconds
#
# Revision: 6
# Processed by: cddbd v1.5.2PL0 Copyright (c) Steve Scherf et al.
# Submitted via: ExactAudioCopyFreeDBPlugin 1.0
#
DISCID=12117112
DTITLE=Buddy Guy - The Very Best of Buddy Guy
DYEAR=1992
DGENRE=Electric Chicago Blues 
TTITLE0=First Time I Met The Blues
TTITLE1=The Way You Been Treating Me
TTITLE2=Sit And Cry (The Blues)
TTITLE3=This Is The End
TTITLE4=Buddy Guy and Junior Wells - Stone Crazy
TTITLE5=When My Left Eye Jumps
TTITLE6=My Time After While
TTITLE7=Hold That Plane
TTITLE8=Hello San Francisco
TTITLE9=Five Long Years
TTITLE10=First Time I Met The Blues (Version 2)
TTITLE11=Buddy Guy and Junior Wells - A Man Of Many Words
TTITLE12=Buddy Guy and Junior Wells - T-Bone Shuffle
TTITLE13=When You See The Tears From My Eyes  (Live at the 1974 Montre
TTITLE13=ux Jazz Festival)
TTITLE14=Ten Years Ago
TTITLE15=Blues At My Baby's House
TTITLE16=She Suits Me To A T
TTITLE17=Just Teasin'
EXTD=YEAR: 1992
EXTT0=
EXTT1=
EXTT2=
EXTT3=
EXTT4=
EXTT5=
EXTT6=
EXTT7=
EXTT8=
EXTT9=
EXTT10=
EXTT11=
EXTT12=
EXTT13=
EXTT14=
EXTT15=
EXTT16=
EXTT17=
PLAYORDER=
